<?xml version="1.0" encoding="utf-8"?>
<!-- Generator: Adobe Illustrator 21.0.0, SVG Export Plug-In . SVG Version: 6.00 Build 0)  -->
<svg version="1.1" id="Слой_1" xmlns="http://www.w3.org/2000/svg" xmlns:xlink="http://www.w3.org/1999/xlink" x="0px" y="0px"
	 viewBox="0 0 1000 1000" style="enable-background:new 0 0 1000 1000;" xml:space="preserve">
<g>
	<g>
		<path d="M384.8,295.4c25.2-38.8,50.7-77.5,76.3-116.1c3.7-5.6,4.5-10.9,2.3-19c-30.9,47-60.9,92.7-91.2,138.8
			C378.7,301.6,381.8,300.2,384.8,295.4z M564,305c3.1,4.7,6.3,7.1,12.6,3.9c-33.3-50.5-66.3-100.7-100.7-153
			c-1.9,8.4-1.2,13.1,1.7,17.5C506.4,217.3,535.3,261.1,564,305z M449.5,853.6c-29-43.8-57.9-87.6-86.9-131.4c-2-3-3.2-7.1-8.2-3.8
			c-4,2.7-1.4,4.6,0.2,7c36.6,55.5,73.2,111,111,168.4c3.2-8.7,1.4-14.2-2.3-19.6C458.6,867.5,454.1,860.5,449.5,853.6z
			 M597.2,701.5c-4.6-2.6-5.7,2.8-7.5,5.5c-36.5,55.2-73,110.5-109.5,165.7c-3.1,4.7-4.5,9.5-2,15.7c1.5-1.2,3-2,3.8-3.2
			c38.2-58,76.4-116.1,114.7-174.1C598.9,707.7,601.6,704,597.2,701.5z M395,603.9c-2.4,3.1-0.4,6.5,0.9,9.3c5.9,13,23.6,15,37.3,4
			c6.7-5.4,12.7-11.7,20.7-19.2c-10.4-0.8-19.2-4.2-24.1-10.9c-8.2-11.2-19.2-6.4-28.9-7.4c-5-0.5-9.1,5.2-9.5,9.9
			c-0.5,6.2,5.7,4.3,9.4,4.7c2.8,0.3,6.2,1,8.5-0.1c8.9-4.1,14.8,1,21.4,5.4c-9.3,2-18.4,2.9-27.5,3.3
			C400.2,602.8,397.1,601.1,395,603.9z M476.1,495c-16.6-11.6-30.4-6.7-44.1-2.3c-2.8,0.9-5.5,2.6-3.7,6.4c1.3,2.8,3.3,2.8,6.1,1.7
			C446.8,495.7,460,494.9,476.1,495z M723.4,552.4c-6.8-21.3-12.2-42.8-12-65.4c0-5.1,0.7-9.9,2.5-14.6c11-29.2,1.2-59.4-24.2-76.8
			c-10.2-7-20.2-14.6-29.7-22.6c-7.5-6.4-14.7-13.3-16.1-24.2c-0.8-6.8-6.8-10.2-12.1-13.3c-11.2-6.5-23.5-11.1-36.2-11.9
			c-13.7-0.9-28.6-5.7-41.3,3.1c-8.5,5.9-16.2,5.5-24.4,1.2c-13.1-7-25.7-15.1-39.1-21.3c-7.1-3.3-12.7-7.1-16.9-13.7
			c-8-12.4-13-13.7-27.1-8.5c-14.1,5.2-26,14.3-38.5,22.4c-8.8,5.7-17.2,8.3-28,4.8c-25.4-8.2-50.8-6-75.4,3.9
			c-17.9,7.2-30.2,19.1-32.8,39.9c-2.7,21.9-10.3,42.5-19.9,62.4c-10.9,22.5-20.5,45.3-16.8,71.4c1.3,9.2-2,18.2-6.4,26.1
			c-6.5,11.5-7.6,24.2-10.3,36.6c-1.8,8,0.1,16.4,6.2,21.9c18.5,16.6,29.1,38.1,37.2,60.7c9,25.2,25.2,43.2,49.1,54.8
			c8.9,4.3,19.4,7.2,26.3,13.7c8.4,7.9,14.6,5.7,23,1.9c18.8-8.6,37.8-16.5,58.8-18.6c12.9-1.3,24.2-5.9,28.4-20.2
			c0.6-2.2,3.2-3.7,4.8-5.6c12.8-15.6,25.6-31.1,38.4-46.7c-3.1-0.3-5.1,0.3-6.7,1.5c-17.4,12.3-35.8,22.3-56.4,27.9
			c-16,4.3-25.2,0.9-33.3-13.4c-11.3-19.8-18.6-41.5-25.9-63c-2.3-6.6-2.6-14.5,2.2-20.4c8.6-10.5,11-21.8,7.7-34.9
			c-1.5-6,0.6-9.8,8.1-7.8c3.4,1,8.8,4.5,10-1.4c1-5-3.6-7.6-8.8-8.1c-6-0.5-6.6-3.9-4.1-8.6c6.9-13,15.6-24.5,27.9-32.7
			c2.1-1.4,4.7-4.3,7.6-1.5c5.8,5.6,5,19.6-1.5,26.8c-5.5,2.8-10.5,5.9-6.8,13.8c0.2-6.3,5.6-8.2,9.1-11.8c10.3-4,15.9-10,10.5-21.9
			c-2.5-5.5,0.4-9.3,6.1-11.3c9.7-3.4,18.7-1.9,24.2,6.6c4.3,6.7,10.2,9.5,17,11.3c6.1,1.6,11.8,4.2,16.9,7.7
			c6.7,4.6,8.9,9.8,3.1,17.5c-10.6,14.2-8.9,19,7.7,25.1c14.6,5.4,15.6,7.8,8.7,21.3c-3.2,6.2-5.7,12.8-9.4,18.7
			c-11.7,18.9-11.8,18.8,4,35c11.5,11.8,11.6,14.9,1.5,27.5c-1.5,1.9-3.2,3.6-3.3,6.4c-0.7,21.7,4.1,50,37,55.9
			c18.6,3.3,38.9,2.7,55.4,12.2c20.6,11.9,37.1,4.4,54.5-5.3c5.6-3.1,7.7-8,7.9-14.4c0.6-20.7,11.2-37.8,27.3-47.9
			c21.4-13.4,27.8-33.9,34.6-55C725.3,564.2,725.3,558.4,723.4,552.4z"/>
	</g>
</g>
</svg>
